<?xml version="1.0" encoding="utf-8"?>
<!-- Generator: Adobe Illustrator 19.0.0, SVG Export Plug-In . SVG Version: 6.00 Build 0)  -->
<svg version="1.1" id="Layer_1" xmlns="http://www.w3.org/2000/svg" xmlns:xlink="http://www.w3.org/1999/xlink" x="0px" y="0px"
	 viewBox="0 0 612 792" enable-background="new 0 0 612 792" xml:space="preserve">
<g id="XMLID_1_">
	<g id="XMLID_19_">
		<path id="XMLID_32_" d="M-1378-344c1284,0,2568,0,3852,0c0,495.333,0,990.667,0,1486c-1284,0-2568,0-3852,0
			C-1378,646.667-1378,151.333-1378-344z"/>
		<path id="XMLID_31_" fill="#FFFFFF" d="M658.741,66.38c-16.783,18.202-31.298,38.044-43.917,59.258
			c-28.47,47.862-45.733,99.453-51.399,154.928c-1.357,13.289-1.807,26.581-1.941,39.903
			c-0.87,86.427-61.412,163.88-151.377,178.887c-74.866,12.488-135.878-14.126-181.716-74.847c-1.787-2.368-3.392-4.873-5.056-7.277
			c-3.102,1.072-2.817,3.607-3.396,5.716C187.384,541.567,116.919,630.067,8.619,688.301c-6.348,3.413-8.822,6.84-8.797,14.292
			c0.311,91.997,0.217,183.996,0.186,275.995c-0.004,12.668,1.348,10.972-11.23,11.089c-6.666,0.062-13.345-0.239-19.995,0.093
			c-4.906,0.245-7.692-0.904-6.937-6.473c0.266-1.964,0.042-3.994,0.042-5.994c0-85.332,0-170.664,0-255.996
			c0-3.566,0-7.133,0-11.539c-104.697,36.667-207.887,35.594-309.095-8.034c-101.31-43.672-174.657-116.952-218.46-218.19
			c-43.827-101.293-44.981-204.616-8.703-308.54c-3.136-1.672-6.144-0.925-9.023-0.93c-32.999-0.062-65.999-0.081-98.998-0.017
			c-11.31,0.022-10.169-1.593-10.172,9.982c-0.027,112.665-0.016,225.33-0.016,337.995c0,67.332,0,134.665,0,201.997
			c0,2.333-0.111,4.672,0.016,6.998c0.177,3.227-0.845,4.964-4.458,4.917c-9.665-0.125-19.334-0.14-28.998,0.016
			c-3.522,0.057-4.726-1.418-4.55-4.728c0.141-2.659,0.018-5.332,0.018-7.998c-0.001-178.997,0.011-357.995-0.022-536.992
			c-0.003-14.232,1.563-12.163-12.167-12.18c-59.999-0.071-119.998-0.031-179.997-0.03c-2.333,0-4.669,0.073-6.999-0.003
			c-2.944-0.096-4.204,1.259-4.096,4.179c0.099,2.663,0.01,5.332,0.01,7.999c-0.001,179.331,0,358.661-0.001,537.992
			c0,11.71-0.003,11.711-11.417,11.714c-6.333,0.001-12.667,0.058-19-0.015c-7.322-0.085-7.328-0.136-7.44-7.859
			c-0.029-2-0.005-4-0.005-6c0-178.664,0-357.328,0-535.992c0-12.013-0.003-12.015-12.223-12.015c-75.665-0.001-151.331,0-226.996,0
			c-1.667,0-3.334,0.026-5-0.004c-7.435-0.134-7.487-0.139-7.542-7.712c-0.06-8.333,0.102-16.669-0.061-24.999
			c-0.073-3.69,0.99-5.675,5.036-5.381c2.652,0.193,5.331,0.033,7.997,0.033c213.33,0,426.66,0,639.99,0c2,0,4.038-0.25,5.993,0.048
			c5.426,0.828,8.127-1.496,10.626-6.416c20.685-40.721,47.565-76.948,80.319-108.787c30.533-29.681,64.747-54.216,102.754-73.474
			c2.998-1.519,6.82-2.154,9.68-6.738c-4.656,0-8.161,0-11.666,0c-279.329,0-558.658,0.007-837.987-0.02
			c-14.835-0.001-12.493,1.597-12.68-12.727c-0.087-6.665,0.101-13.336-0.054-19.998c-0.087-3.753,1.255-5.594,5.184-5.358
			c2.657,0.16,5.331,0.023,7.998,0.023c339.995,0,679.99,0.039,1019.984-0.024C-83.228-97.519,11.095-63.313,92.022,7.157
			c5.769,5.024,4.751,5.195,11.108-0.396c33.233-29.227,70.091-52.801,110.753-70.247c37.743-16.194,76.993-26.848,117.96-30.992
			C453.077-106.741,559.816-72.877,652.476,5.985c1.015,0.863,2.075,1.699,2.953,2.691c2.493,2.815,4.6,2.457,7.336-0.011
			c11.881-10.715,24.373-20.695,37.482-29.877c49.948-34.986,104.767-58.23,164.857-69.258c37.28-6.842,74.82-8.796,112.355-5.183
			c88.198,8.49,166.343,41.444,233.733,99.313c3.014,2.588,6.101,5.091,9.448,7.878c12.846-11.076,25.558-21.737,39.074-31.379
			c51.958-37.065,109.471-61.062,172.298-71.737c38.213-6.493,76.733-7.33,115.393-2.976c86.903,9.787,162.935,43.876,228.75,101.17
			c6.245,5.437,6.054,5.248,12.034-0.01c56.155-49.37,121.036-81.344,194.255-96.182c39.4-7.984,79.36-9.915,119.27-6.033
			c84.593,8.228,160.179,39.048,225.926,93.278c9.997,8.246,19.856,16.666,29.354,26.95c-8.149,8.134-16.138,15.984-23.971,23.986
			c-3.494,3.569-5.276,0.314-7.256-1.599c-11.759-11.358-24.167-21.945-37.305-31.667c-49.209-36.415-103.847-60.085-164.457-69.391
			c-111.667-17.145-211.541,10.163-299.948,80.158c-4.935,3.907-9.549,8.222-14.829,12.795
			c23.811,26.454,43.948,54.874,60.35,85.871c16.218,30.647,28.371,62.87,36.984,97.911c39.538-57.179,92.42-87.676,161.42-86.506
			c47.977,0.813,89.071,19.183,122.963,51.779c-8.94,9.108-17.708,18.042-26.658,27.16c-17.396-16.571-38.259-28.902-62.464-35.758
			c-83.158-23.555-169.681,32.384-182.351,117.968c-1.326,8.959-1.55,17.896-1.551,26.882
			c-0.012,133.331,0.013,266.663-0.039,399.994c-0.005,13.553,1.928,11.529-11.521,11.696c-7.332,0.091-14.67-0.127-21.998,0.071
			c-3.533,0.095-4.784-1.29-4.542-4.665c0.166-2.321,0.025-4.664,0.025-6.998c0-91.999,0-183.997,0-275.996c0-2,0.032-4.001-0.006-6
			c-0.144-7.497-0.152-7.641-7.795-7.645c-73.999-0.037-147.998,0.069-221.996-0.193c-6.031-0.021-9.011,3.1-12.363,6.832
			c-22.518,25.07-49.802,42.843-82.008,52.785c-76.291,23.551-157.703-4.244-204.008-69.398c-1.839-2.588-2.885-6.003-6.92-7.78
			c-8.603,34.244-20.754,66.739-37.183,97.542c-16.335,30.627-36.302,58.758-60.071,85.174
			c75.634,66.458,163.076,100.079,263.163,97.671c100.055-2.408,185.977-40.104,258.54-110.628
			c7.536,7.844,14.422,15.532,21.903,22.589c4.049,3.82,3.4,5.954-0.288,9.47c-18.132,17.282-37.396,33.163-58.25,47.002
			c-50.798,33.709-106.157,55.985-166.635,64.681c-127.932,18.395-240.966-14.877-339.299-98.557
			c-5.93-5.046-5.952-5.17-11.823-0.066c-48.677,42.311-103.868,72.627-166.221,89.34c-42.999,11.526-86.734,16.432-131.378,13.729
			c-36.727-2.224-72.489-8.658-107.387-20.182c-2.159-0.713-4.358-1.662-6.886-1.16c-1.581,3.464-0.723,7.148-0.725,10.704
			c-0.06,84.332-0.046,168.664-0.046,252.996c0,2-0.215,4.028,0.04,5.995c0.702,5.4-1.741,6.795-6.824,6.577
			c-8.651-0.372-17.331-0.216-25.994-0.056c-3.833,0.071-5.551-1.373-5.244-5.238c0.131-1.656,0.017-3.332,0.017-4.998
			c0-105.332-0.007-210.663,0.036-315.995c0.001-2.559-0.687-5.233,1.029-8.471c90.952,45.485,185.573,55.215,283.353,26.484
			c54.336-15.966,102.455-43.525,144.939-82.08c-47.779-53.083-80.015-113.837-97.399-183.782
			c-38.711,55.803-89.818,86.603-156.955,86.37c-66.629-0.23-117.383-30.987-155.41-85.922c-3.972,12.878-7.264,24.9-11.366,36.64
			c-36.555,104.605-103.927,182.954-201.505,235.241c-7.061,3.783-9.614,7.797-9.586,15.876
			c0.317,91.664,0.209,183.33,0.193,274.995c-0.002,12.11,1.047,10.765-10.591,10.827c-7.333,0.039-14.671-0.149-21.998,0.066
			c-3.84,0.113-5.56-1.209-5.276-5.126c0.168-2.321,0.026-4.664,0.026-6.998c0-85.332,0-170.664,0-255.996c0-3.606,0-7.212,0-12.141
			c-46.121,17.109-93.008,25.708-141.122,26.211c-47.838,0.501-94.611-7.02-139.904-22.856c-3.179,3.517-1.866,7.355-1.87,10.796
			c-0.083,84.665-0.047,169.331-0.083,253.996c-0.006,14.25,1.362,11.849-12.344,12.037c-6.999,0.096-14.001-0.075-20.999,0.041
			c-3.389,0.056-4.919-1.329-4.737-4.719c0.089-1.661-0.001-3.332-0.001-4.999c-0.001-105.998-0.001-211.997-0.001-317.995
			c0-1.971,0-3.942,0-7.114c113.575,55.003,227.578,58.488,341.319,4.095c76.039-36.363,133.222-93.402,171.526-168.443
			C790.539,343.395,758,172.862,658.741,66.38z"/>
		<path id="XMLID_30_" d="M-296.277,174.765c-13.842,11.584-25.278,23.132-34.924,36.36
			c-78.539,107.708-19.693,260.154,110.917,287.329c101.815,21.184,197.768-46.598,216.562-143.797
			c2.412-12.474,3.568-25.013,3.699-37.692C0.938,224.102,32.12,142.582,92.061,71.876c1.5-1.769,3.099-3.455,4.536-5.05
			c4.136,1.553,5.998,4.881,8.315,7.63c45.663,54.156,75.388,115.938,85.278,186.172c18.415,130.769-20.283,242.79-115.188,334.417
			c-53.222,51.383-117.482,83.224-190.265,96.368c-199.878,36.095-387.136-90.126-435.015-280.001
			c-8.685-34.441-12.685-69.425-11.39-104.872c1.578-43.205,10.221-85.064,25.856-125.447c1.862-4.81,3.901-7.262,9.886-7.24
			c74.983,0.276,149.967,0.181,224.951,0.202C-300.044,174.054-299.112,174.325-296.277,174.765z"/>
		<path id="XMLID_29_" d="M1247.822,39.085c8.805-8.99,18.315-16.293,27.944-23.403c49.499-36.55,104.473-59.917,165.342-69.926
			c193.502-31.818,381.043,91.596,428.269,285.044c6.968,28.544,10.417,57.617,10.461,87.043
			c0.036,23.665,0.037,47.331-0.008,70.997c-0.015,7.949-0.101,7.952-8.333,8.076c-1.333,0.02-2.667,0.003-4,0.003
			c-158.992,0-317.985-0.109-476.976,0.268c-9.625,0.023-14.297-3.365-18.188-11.39c-22.161-45.711-21.683-90.937,1.528-136.151
			c3.234-6.3,7.198-8.034,13.97-8.018c88.995,0.216,177.991,0.154,266.987,0.108c3.567-0.002,7.211,0.653,10.741-0.534
			c-8.227-35.561-61.654-83.726-110.887-97.049c-87.375-23.645-156.293,5.475-209.84,77.782
			C1327.549,152.401,1295.24,91.761,1247.822,39.085z"/>
		<path id="XMLID_28_" d="M-513.114,135.977C-403.433-70.31-115.162-129.425,70.115,39.136C22.91,91.646-9.52,152.229-26.481,220.82
			c-3.272,0.165-3.998-2.468-5.239-4.264c-29.473-42.626-69.887-68.455-120.633-78.012c-8.75-1.648-17.724-2.615-26.785-2.606
			c-107.64,0.106-215.281,0.051-322.921,0.038C-505.608,135.976-509.156,135.977-513.114,135.977z"/>
		<path id="XMLID_27_" d="M222.825,221.435c-3.489-3.334-3.213-7.336-4.137-10.744c-16.736-61.765-46.417-116.563-88.231-164.888
			c-0.436-0.504-0.9-0.983-1.33-1.492c-4.658-5.513-4.804-5.688,0.477-10.126c7.39-6.211,14.839-12.378,22.583-18.135
			c49.958-37.14,105.49-61.358,167.194-70.403C436.589-71.533,539.837-40.47,629.509,36.572c0.747,0.642,1.313,1.496,2.261,2.596
			c-47.286,52.57-79.766,113.158-97.144,183.619c-38.286-55.532-89.357-86.49-156.161-86.544
			C311.827,136.188,260.77,166.667,222.825,221.435z"/>
		<path id="XMLID_26_" d="M1095.119,221.293c-37.583-54.499-88.847-85.21-155.803-85.045
			c-66.555,0.164-117.479,30.849-155.781,86.525c-8.938-35.123-20.959-67.614-37.364-98.405
			c-16.363-30.713-36.257-58.927-59.822-85.092c4.149-5.365,9.556-9.132,14.586-13.234c50.748-41.381,108.311-68.724,172.831-79.374
			c117.417-19.381,222.015,9.983,313.349,86.345c6.598,5.517,6.597,5.665,1.529,11.47c-43.874,50.257-74.378,107.554-90.79,172.276
			C1097.432,218.416,1096.973,219.957,1095.119,221.293z"/>
		<path id="XMLID_25_" d="M1220.858,571.561c-133.402-142.056-127.025-372.132,0.039-504.519
			C1347.991,203.921,1352.93,427.166,1220.858,571.561z"/>
		<path id="XMLID_24_" d="M-328.464,319.581c-0.284-79.756,64.695-145.234,144.181-145.58
			c78.562-0.342,144.762,62.184,146.042,142.705c1.343,84.477-67.703,146.556-143.161,147.589
			C-258.731,465.354-328.279,402.621-328.464,319.581z"/>
		<path id="XMLID_23_" d="M377.833,464.066c-78.484,0.743-144.631-64.977-144.747-144.812
			c-0.113-77.287,63.163-145.344,145.559-145.226c75.071,0.107,144.65,59.377,144.67,145.032
			C523.336,407.703,449.898,465.544,377.833,464.066z"/>
		<path id="XMLID_22_" d="M1084.711,320.54c0.294,78.996-67.053,145.765-148.812,143.7c-70.594-1.783-141.403-58.268-141.19-145.464
			c0.212-86.637,71.432-146.361,147.955-144.729C1024.361,175.789,1086.462,244.071,1084.711,320.54z"/>
		<path id="XMLID_21_" fill="#080606" d="M1585.309,436.037c-41.956,35.482-118.971,39.282-168.166,0.35
			C1423.535,434.113,1576.106,433.795,1585.309,436.037z"/>
		<path id="XMLID_20_" fill="#040505" d="M1584.93,203.346c-55.78,0-111.56,0-167.362,0c5.44-9.717,36.827-23.808,59.343-27.325
			c39.848-6.225,75.981,2.323,108.744,25.122C1585.414,201.877,1585.172,202.612,1584.93,203.346z"/>
	</g>
</g>
</svg>
